<svg version="1.1" xmlns="http://www.w3.org/2000/svg" viewBox="0 0 406.7830537854752 458.46739130434776" width="406.7830537854752" height="458.46739130434776">
  <!-- svg-source:excalidraw -->
  
  <defs>
    <style class="style-fonts">
      @font-face {
        font-family: "Virgil";
        src: url("https://excalidraw.com/Virgil.woff2");
      }
      @font-face {
        font-family: "Cascadia";
        src: url("https://excalidraw.com/Cascadia.woff2");
      }
      @font-face {
        font-family: "Assistant";
        src: url("https://excalidraw.com/Assistant-Regular.woff2");
      }
    </style>
    
  </defs>
  <rect x="0" y="0" width="406.7830537854752" height="458.46739130434776" fill="#ffffff"></rect><g stroke-linecap="round" transform="translate(14.916388899000594 90) rotate(0 174.5 37)"><path d="M18.5 0 C93.3 -0.93, 171.71 -0.2, 330.5 0 C341.87 1.34, 348.88 7.09, 349 18.5 C348.84 28.61, 352.02 43.76, 349 55.5 C347.83 68.6, 345.88 70.78, 330.5 74 C227.66 77.33, 127.53 75.53, 18.5 74 C3.04 71.29, 1.96 70.68, 0 55.5 C-1.47 49.4, 0.77 41.64, 0 18.5 C-2.82 9.27, 7.3 -0.95, 18.5 0" stroke="none" stroke-width="0" fill="#b2f2bb"></path><path d="M18.5 0 C107.94 0.01, 198.23 1.08, 330.5 0 M18.5 0 C134.37 -1.68, 248.96 -1.79, 330.5 0 M330.5 0 C341.59 0.43, 347.23 5.25, 349 18.5 M330.5 0 C343.37 -0.87, 351.18 4.83, 349 18.5 M349 18.5 C350.52 31.23, 348.51 45.5, 349 55.5 M349 18.5 C349.49 33.22, 349.58 47.28, 349 55.5 M349 55.5 C347.65 67.77, 343.14 74.98, 330.5 74 M349 55.5 C346.72 67.19, 344.39 75.78, 330.5 74 M330.5 74 C208.31 76.29, 83.92 75.53, 18.5 74 M330.5 74 C227.76 73.06, 123.52 72.4, 18.5 74 M18.5 74 C6.5 73.45, 0.77 68.44, 0 55.5 M18.5 74 C8.2 75.94, -0.69 69.99, 0 55.5 M0 55.5 C1.14 43.37, -0.21 33.28, 0 18.5 M0 55.5 C-0.25 43.86, 0.08 32.5, 0 18.5 M0 18.5 C1.62 6.51, 6.5 -1.63, 18.5 0 M0 18.5 C-1.78 6.54, 6.06 -1.23, 18.5 0" stroke="#1e1e1e" stroke-width="2" fill="none"></path></g><g transform="translate(146.1913904248795 114.5) rotate(0 43.224998474121094 12.5)"><text x="43.224998474121094" y="17.52" font-family="Virgil, Segoe UI Emoji" font-size="20px" fill="#1e1e1e" text-anchor="middle" style="white-space: pre;" direction="ltr" dominant-baseline="alphabetic">Collector</text></g><g stroke-linecap="round" transform="translate(15.416388899000594 10) rotate(0 174.5 37)"><path d="M18.5 0 C104.15 3.24, 187.78 5.62, 330.5 0 C339.69 2.61, 346.81 8.23, 349 18.5 C349.36 28.31, 350.46 38.44, 349 55.5 C349.91 69.29, 343.76 71.62, 330.5 74 C219.94 74.2, 111.41 76.53, 18.5 74 C3.52 75.07, -0.09 70.75, 0 55.5 C-2.96 43.93, 2.16 34.93, 0 18.5 C0.31 7.95, 3.23 2.48, 18.5 0" stroke="none" stroke-width="0" fill="#a5d8ff"></path><path d="M18.5 0 C138.57 0.87, 257.44 -0.84, 330.5 0 M18.5 0 C96.42 2.32, 175.97 1.4, 330.5 0 M330.5 0 C343.84 1.22, 348.37 7.41, 349 18.5 M330.5 0 C343.54 1.8, 347.2 8.15, 349 18.5 M349 18.5 C349.28 28.98, 348.37 42.18, 349 55.5 M349 18.5 C349.91 27.38, 348.91 36.26, 349 55.5 M349 55.5 C348.37 67.39, 341.78 75.08, 330.5 74 M349 55.5 C346.84 66.69, 341.06 72.23, 330.5 74 M330.5 74 C240.9 75.84, 150.73 75.13, 18.5 74 M330.5 74 C260.89 75.83, 190.51 75.94, 18.5 74 M18.5 74 C4.59 75.88, 0.62 69.52, 0 55.5 M18.5 74 C6.84 72.13, 1.3 66.97, 0 55.5 M0 55.5 C-2.15 45.5, -1.27 35.31, 0 18.5 M0 55.5 C-0.79 42.38, -0.28 28.95, 0 18.5 M0 18.5 C0.58 5.75, 4.61 0.77, 18.5 0 M0 18.5 C0.95 4.47, 7.51 -1.17, 18.5 0" stroke="#1e1e1e" stroke-width="2" fill="none"></path></g><g transform="translate(129.5163873731217 34.5) rotate(0 60.400001525878906 12.5)"><text x="60.400001525878906" y="17.52" font-family="Virgil, Segoe UI Emoji" font-size="20px" fill="#1e1e1e" text-anchor="middle" style="white-space: pre;" direction="ltr" dominant-baseline="alphabetic">Visualization</text></g><g stroke-linecap="round" transform="translate(10.207748588576123 304.2187885395009) rotate(0 103.55744700125916 12.243244965666122)"><path d="M0 0 C43.06 -2.76, 88.09 -0.92, 207.11 0 M0 0 C58.42 -0.81, 116.34 -2.1, 207.11 0 M207.11 0 C205.03 7.06, 208.07 12.77, 207.11 24.49 M207.11 0 C207.59 7.55, 207.72 13.73, 207.11 24.49 M207.11 24.49 C126.66 26.99, 45.73 26.75, 0 24.49 M207.11 24.49 C145.38 22.86, 85.82 22.76, 0 24.49 M0 24.49 C-0.86 17.07, -1.44 13.12, 0 0 M0 24.49 C-1.19 15.86, -0.44 8.46, 0 0" stroke="#000000" stroke-width="1" fill="none"></path></g><g stroke-linecap="round"><g transform="translate(18.83802424256737 310.13731164243416) rotate(0 0 7.3969605000899605)"><path d="M-0.35 0.49 C-0.39 2.94, 0.18 12.22, 0.22 14.69 M0.47 0.26 C0.34 2.81, 0.06 12.96, -0.1 15.33" stroke="#000000" stroke-width="1" fill="none"></path></g></g><mask></mask><g stroke-linecap="round"><g transform="translate(25.78730331593215 309.8349986190127) rotate(0 0 7.3969605000899605)"><path d="M0.22 -0.11 C0.26 2.36, -0.08 12.72, -0.09 15.29 M-0.33 -0.64 C-0.34 1.93, -0.61 12.05, -0.57 14.58" stroke="#000000" stroke-width="1" fill="none"></path></g></g><mask></mask><g stroke-linecap="round"><g transform="translate(32.41098519404795 309.64342959425915) rotate(0 0 7.3969605000899605)"><path d="M-0.09 0.49 C-0.1 3.07, 0.15 12.98, 0.17 15.32 M-0.8 0.27 C-0.89 2.71, -0.26 12.17, -0.18 14.62" stroke="#000000" stroke-width="1" fill="none"></path></g></g><mask></mask><g stroke-linecap="round"><g transform="translate(38.28091487846086 309.4041988974344) rotate(0 0 7.3969605000899605)"><path d="M0.17 0.52 C0.19 2.86, 0.08 12.23, 0.02 14.52 M-0.41 0.32 C-0.45 2.96, -0.36 12.7, -0.4 15.08" stroke="#000000" stroke-width="1" fill="none"></path></g></g><mask></mask><g stroke-linecap="round"><g transform="translate(44.772856167916416 310.1113919982047) rotate(0 0 7.3969605000899605)"><path d="M0.02 -0.28 C-0.03 2.01, -0.09 11.82, -0.17 14.25 M-0.63 0.77 C-0.79 3.34, -0.89 12.36, -0.69 14.67" stroke="#000000" stroke-width="1" fill="none"></path></g></g><mask></mask><g stroke-linecap="round"><g transform="translate(51.519447214988304 309.7061893253875) rotate(0 0 7.3969605000899605)"><path d="M-0.17 -0.54 C-0.26 1.88, -0.54 11.68, -0.49 14.29 M0.74 0.37 C0.82 2.87, 0.65 12.42, 0.5 14.73" stroke="#000000" stroke-width="1" fill="none"></path></g></g><mask></mask><g stroke-linecap="round"><g transform="translate(58.08513952032854 309.31088747581646) rotate(0 0 7.3969605000899605)"><path d="M-0.49 -0.51 C-0.43 2.11, 0.07 12.58, 0.13 15.12 M0.27 0.42 C0.27 2.93, -0.1 11.84, -0.23 14.33" stroke="#000000" stroke-width="1" fill="none"></path></g></g><mask></mask><g stroke-linecap="round"><g transform="translate(64.78296259445779 309.6320157516741) rotate(0 0 7.3969605000899605)"><path d="M0.13 0.33 C0.19 2.87, -0.11 12.43, -0.11 14.77 M-0.47 0.02 C-0.44 2.7, -0.65 13, -0.6 15.45" stroke="#000000" stroke-width="1" fill="none"></path></g></g><mask></mask><g stroke-linecap="round"><g transform="translate(71.22571335314751 309.3225352421068) rotate(0 0 7.3969605000899605)"><path d="M-0.11 -0.03 C-0.11 2.31, 0.07 11.86, 0.13 14.36 M-0.83 -0.52 C-0.9 1.85, -0.38 12.42, -0.24 14.84" stroke="#000000" stroke-width="1" fill="none"></path></g></g><mask></mask><g stroke-linecap="round"><g transform="translate(77.24043145781889 308.88766111281086) rotate(0 0 7.3969605000899605)"><path d="M0.13 -0.43 C0.18 2.07, 0.2 12.5, 0.23 14.97 M-0.47 0.53 C-0.46 2.87, -0.18 11.72, -0.08 14.1" stroke="#000000" stroke-width="1" fill="none"></path></g></g><mask></mask><g stroke-linecap="round"><g transform="translate(96.99226660912245 309.3888068420697) rotate(0 0 7.3969605000899605)"><path d="M0.23 0.18 C0.26 2.65, 0.26 11.93, 0.3 14.4 M-0.31 -0.21 C-0.34 2.36, -0.09 12.53, 0.03 14.89" stroke="#000000" stroke-width="1" fill="none"></path></g></g><mask></mask><g stroke-linecap="round"><g transform="translate(83.73588461611371 309.89180866251036) rotate(0 0 7.3969605000899605)"><path d="M0.3 -0.4 C0.34 2.07, 0.48 12.43, 0.49 14.97 M-0.21 0.59 C-0.21 2.87, 0.25 11.61, 0.31 14.09" stroke="#000000" stroke-width="1" fill="none"></path></g></g><mask></mask><g stroke-linecap="round"><g transform="translate(103.62402429885924 309.12050129648026) rotate(0 0 7.3969605000899605)"><path d="M0.49 0.17 C0.5 2.72, 0.37 12.42, 0.36 14.85 M0.08 -0.21 C0.02 2.46, 0.08 12.99, 0.11 15.59" stroke="#000000" stroke-width="1" fill="none"></path></g></g><mask></mask><g stroke-linecap="round"><g transform="translate(90.57270966707802 308.93370613279194) rotate(0 0 7.3969605000899605)"><path d="M0.36 0.06 C0.34 2.49, 0.41 12.32, 0.4 14.77 M-0.12 -0.38 C-0.22 2.12, 0.13 12.83, 0.18 15.45" stroke="#000000" stroke-width="1" fill="none"></path></g></g><mask></mask><g stroke-linecap="round"><g transform="translate(110.01039079718475 309.64166466875804) rotate(0 0 7.3969605000899605)"><path d="M0.4 -0.03 C0.4 2.42, 0.48 12.37, 0.33 14.76 M-0.05 -0.52 C-0.13 2.02, -0.03 12.91, 0.07 15.44" stroke="#000000" stroke-width="1" fill="none"></path></g></g><mask></mask><g stroke-linecap="round"><g transform="translate(126.72805425865226 311.69377921301555) rotate(0 25.761827948589087 0)"><path d="M0.72 -0.07 C8.97 -0.23, 42.11 -0.99, 50.39 -1 M-0.36 -1.16 C8.17 -1.19, 43.66 -0.37, 52.5 0.01" stroke="#000000" stroke-width="1" fill="none"></path></g></g><mask></mask><g stroke-linecap="round"><g transform="translate(127.33418202518214 323.9810620408755) rotate(0 25.715452020688815 -2.712991782164636)"><path d="M0 0 C-0.51 -2.68, -0.09 -3.92, -0.05 -5.89 M0 0 C-0.11 -1.77, -0.26 -3.5, -0.05 -5.89 M-0.05 -5.89 C13.64 -8.23, 27.52 -6.67, 51.48 -5.66 M-0.05 -5.89 C11.99 -4.96, 25.14 -5.85, 51.48 -5.66 M51.48 -5.66 C51.67 -3.94, 52.03 -2.44, 51.48 0.46 M51.48 -5.66 C51.14 -3.81, 51.34 -1.74, 51.48 0.46" stroke="#000000" stroke-width="1" fill="none"></path></g></g><mask></mask><g stroke-linecap="round" transform="translate(194.18105456887497 310.61866658973554) rotate(0 6.492629906035063 6.492629906035063)"><path d="M7.4 -0.18 C8.7 -0.1, 10.22 0.6, 11.09 1.66 C11.96 2.72, 12.52 4.63, 12.62 6.17 C12.72 7.71, 12.54 9.89, 11.7 10.92 C10.87 11.95, 9.06 12.15, 7.61 12.35 C6.17 12.55, 4.25 12.68, 3.02 12.12 C1.78 11.56, 0.67 10.33, 0.21 9 C-0.25 7.68, -0.28 5.52, 0.26 4.17 C0.8 2.82, 2.24 1.6, 3.44 0.9 C4.65 0.21, 6.76 0.07, 7.48 -0.01 C8.2 -0.09, 7.73 0.3, 7.75 0.42 M7.41 -0.22 C8.64 -0.15, 10.06 0.92, 10.95 1.99 C11.85 3.07, 12.75 4.76, 12.76 6.22 C12.77 7.68, 11.95 9.6, 11.02 10.75 C10.09 11.9, 8.49 12.8, 7.17 13.12 C5.85 13.44, 4.15 13.5, 3.1 12.68 C2.06 11.86, 1.26 9.68, 0.92 8.18 C0.58 6.68, 0.57 4.97, 1.07 3.68 C1.58 2.38, 2.88 0.94, 3.92 0.4 C4.97 -0.13, 6.79 0.37, 7.36 0.45 C7.94 0.53, 7.4 0.85, 7.35 0.9" stroke="#000000" stroke-width="1" fill="none"></path></g><g stroke-linecap="round" transform="translate(10.717883795482976 329.2154136777375) rotate(0 103.55744700125916 12.243244965666122)"><path d="M0 0 C42.18 -2.32, 85.16 -1.87, 207.11 0 M0 0 C53.17 1.46, 107.4 0.88, 207.11 0 M207.11 0 C205.82 5.2, 206.69 8.59, 207.11 24.49 M207.11 0 C206.88 9.47, 207.43 18.98, 207.11 24.49 M207.11 24.49 C145.77 22.54, 82.11 22.1, 0 24.49 M207.11 24.49 C160.7 22.84, 114.68 23.25, 0 24.49 M0 24.49 C-0.84 18.21, -1.03 9.97, 0 0 M0 24.49 C-0.56 18.97, -0.76 11.76, 0 0" stroke="#000000" stroke-width="1" fill="none"></path></g><g stroke-linecap="round"><g transform="translate(19.919501243964532 334.8561368821106) rotate(0 0 7.3969605000899605)"><path d="M-0.41 0.02 C-0.5 2.46, -0.25 12.16, -0.27 14.56 M0.38 -0.45 C0.45 2.08, 0.81 12.6, 0.83 15.14" stroke="#000000" stroke-width="1" fill="none"></path></g></g><mask></mask><g stroke-linecap="round"><g transform="translate(26.561311137905705 334.53752777162936) rotate(0 0 7.3969605000899605)"><path d="M-0.27 -0.23 C-0.28 2.16, -0.55 11.88, -0.52 14.4 M0.6 -0.83 C0.78 1.62, 0.63 12.17, 0.45 14.9" stroke="#000000" stroke-width="1" fill="none"></path></g></g><mask></mask><g stroke-linecap="round"><g transform="translate(33.110043842922096 334.55565313908915) rotate(0 0 7.3969605000899605)"><path d="M-0.52 -0.39 C-0.49 2.13, -0.25 12.4, -0.08 14.88 M0.22 0.59 C0.19 2.96, -0.59 11.57, -0.56 13.96" stroke="#000000" stroke-width="1" fill="none"></path></g></g><mask></mask><g stroke-linecap="round"><g transform="translate(38.70664849195509 334.773111897387) rotate(0 0 7.3969605000899605)"><path d="M-0.08 0.09 C0.08 2.58, 0.56 12.15, 0.49 14.52 M-0.79 -0.34 C-0.61 2.25, 0.09 12.58, 0.31 15.08" stroke="#000000" stroke-width="1" fill="none"></path></g></g><mask></mask><g stroke-linecap="round"><g transform="translate(45.59804922601779 334.81012707249715) rotate(0 0 7.3969605000899605)"><path d="M0.49 -0.27 C0.41 2.1, -0.44 11.85, -0.54 14.31 M0.07 0.78 C0.16 3.19, 0.52 12.4, 0.42 14.76" stroke="#000000" stroke-width="1" fill="none"></path></g></g><mask></mask><g stroke-linecap="round"><g transform="translate(51.71450259793255 335.0656627802771) rotate(0 0 7.3969605000899605)"><path d="M-0.54 -0.49 C-0.64 1.98, -0.23 11.96, -0.12 14.5 M0.19 0.45 C-0.04 3.01, -0.55 12.57, -0.62 15.05" stroke="#000000" stroke-width="1" fill="none"></path></g></g><mask></mask><g stroke-linecap="round"><g transform="translate(58.31566621655929 333.51673271179675) rotate(0 0 7.3969605000899605)"><path d="M-0.12 -0.3 C-0.02 2.24, 0.11 12.15, 0.07 14.74 M0.81 0.74 C0.89 3.41, -0.32 13.13, -0.33 15.41" stroke="#000000" stroke-width="1" fill="none"></path></g></g><mask></mask><g stroke-linecap="round"><g transform="translate(64.71489809493141 334.3311367827944) rotate(0 0 7.3969605000899605)"><path d="M0.07 -0.06 C0.03 2.53, -0.33 12.78, -0.36 15.24 M-0.56 -0.56 C-0.42 1.9, 0.68 11.86, 0.69 14.51" stroke="#000000" stroke-width="1" fill="none"></path></g></g><mask></mask><g stroke-linecap="round"><g transform="translate(71.64092058434017 333.7044109795843) rotate(0 0 7.3969605000899605)"><path d="M-0.36 0.45 C-0.39 2.91, -0.15 12.32, -0.1 14.72 M0.45 0.2 C0.34 2.76, -0.43 12.83, -0.59 15.38" stroke="#000000" stroke-width="1" fill="none"></path></g></g><mask></mask><g stroke-linecap="round"><g transform="translate(77.8577575791578 333.6889797019644) rotate(0 0 7.3969605000899605)"><path d="M-0.1 -0.07 C-0.06 2.33, -0.15 12.36, -0.1 14.87 M-0.82 -0.59 C-0.83 1.88, -0.71 13.17, -0.59 15.6" stroke="#000000" stroke-width="1" fill="none"></path></g></g><mask></mask><g stroke-linecap="round"><g transform="translate(97.27898096568424 334.6543170733619) rotate(0 0 7.3969605000899605)"><path d="M-0.1 0.07 C-0.05 2.58, 0.18 12.43, 0.2 14.96 M-0.82 -0.37 C-0.81 1.98, -0.21 11.61, -0.13 14.08" stroke="#000000" stroke-width="1" fill="none"></path></g></g><mask></mask><g stroke-linecap="round"><g transform="translate(84.13215355155535 334.66501295040143) rotate(0 0 7.3969605000899605)"><path d="M0.2 0.17 C0.21 2.7, 0.07 12.81, 0 15.29 M-0.36 -0.22 C-0.41 2.17, -0.38 12.2, -0.43 14.58" stroke="#000000" stroke-width="1" fill="none"></path></g></g><mask></mask><g stroke-linecap="round"><g transform="translate(103.98809213499908 334.74918444399304) rotate(0 0 7.3969605000899605)"><path d="M0 0.49 C-0.07 2.97, -0.14 12.68, -0.21 15.01 M-0.67 0.27 C-0.84 2.57, -0.98 11.71, -0.75 14.16" stroke="#000000" stroke-width="1" fill="none"></path></g></g><mask></mask><g stroke-linecap="round"><g transform="translate(90.73139476953611 334.1466764665586) rotate(0 0 7.3969605000899605)"><path d="M-0.21 0.22 C-0.27 2.56, -0.34 12.16, -0.39 14.51 M0.69 -0.14 C0.79 2.5, 0.67 12.59, 0.65 15.07" stroke="#000000" stroke-width="1" fill="none"></path></g></g><mask></mask><g stroke-linecap="round"><g transform="translate(110.53429506821385 333.6715468006173) rotate(0 0 7.3969605000899605)"><path d="M-0.39 -0.28 C-0.44 2.08, -0.56 11.93, -0.52 14.37 M0.41 0.77 C0.54 3.16, 0.61 12.52, 0.44 14.85" stroke="#000000" stroke-width="1" fill="none"></path></g></g><mask></mask><g stroke-linecap="round"><g transform="translate(127.09620336146372 336.5739241536576) rotate(0 25.761827948589087 0)"><path d="M-1.14 -0.93 C7.53 -0.98, 42.46 -1.06, 51.17 -0.95 M0.46 1.2 C9.02 1.32, 41.75 0.14, 50.04 0.09" stroke="#000000" stroke-width="1" fill="none"></path></g></g><mask></mask><g stroke-linecap="round"><g transform="translate(127.8502607152841 349.229944071752) rotate(0 25.715452020688815 -2.712991782164636)"><path d="M0 0 C-0.43 -1.39, -0.1 -2.52, -0.05 -5.89 M0 0 C0.22 -2, 0.18 -3.94, -0.05 -5.89 M-0.05 -5.89 C18.88 -6.9, 37.91 -7.23, 51.48 -5.66 M-0.05 -5.89 C14.27 -4.65, 30.48 -5.84, 51.48 -5.66 M51.48 -5.66 C51.03 -3.26, 51.41 -1.04, 51.48 0.46 M51.48 -5.66 C51.23 -4.1, 51.27 -2.85, 51.48 0.46" stroke="#000000" stroke-width="1" fill="none"></path></g></g><mask></mask><g stroke-linecap="round" transform="translate(194.69118977577045 335.61529172797077) rotate(0 6.492629906035063 6.492629906035063)"><path d="M6.7 0.43 C7.97 0.33, 9.31 0.9, 10.3 1.72 C11.29 2.54, 12.34 4.12, 12.64 5.35 C12.93 6.58, 12.62 7.98, 12.04 9.11 C11.47 10.24, 10.35 11.6, 9.17 12.12 C7.99 12.64, 6.31 12.57, 4.95 12.21 C3.58 11.85, 1.86 11.14, 0.98 9.98 C0.1 8.82, -0.59 6.6, -0.34 5.25 C-0.08 3.9, 1.41 2.71, 2.49 1.87 C3.58 1.02, 5.54 0.42, 6.17 0.16 C6.8 -0.1, 6.3 0.19, 6.28 0.32 M6.28 0.67 C7.4 0.75, 9.03 1.15, 10.05 1.96 C11.07 2.76, 12.13 4.23, 12.4 5.51 C12.67 6.79, 12.23 8.42, 11.66 9.62 C11.09 10.82, 10.21 12.16, 8.96 12.7 C7.7 13.24, 5.6 13.28, 4.14 12.86 C2.67 12.45, 0.9 11.44, 0.17 10.2 C-0.57 8.97, -0.59 6.99, -0.26 5.46 C0.08 3.92, 1 1.9, 2.17 1.01 C3.34 0.11, 6 0.22, 6.78 0.08 C7.55 -0.05, 6.79 0.04, 6.84 0.2" stroke="#000000" stroke-width="1" fill="none"></path></g><g stroke-linecap="round" transform="translate(10.717883795482976 353.7019036090685) rotate(0 103.55744700125916 12.243244965666122)"><path d="M0 0 C56.12 0.64, 113.11 1.81, 207.11 0 M0 0 C56.38 0.35, 111.14 1.06, 207.11 0 M207.11 0 C207.18 5.53, 205.74 9.48, 207.11 24.49 M207.11 0 C207.52 8.57, 207.57 17.8, 207.11 24.49 M207.11 24.49 C131.36 25.8, 59.94 24.8, 0 24.49 M207.11 24.49 C131.17 24.93, 56.6 25.15, 0 24.49 M0 24.49 C1.01 16.86, -0.01 10.8, 0 0 M0 24.49 C0.43 19.04, 0.72 13.94, 0 0" stroke="#000000" stroke-width="1" fill="none"></path></g><g stroke-linecap="round"><g transform="translate(19.64648723421942 359.2647938790212) rotate(0 0 7.3969605000899605)"><path d="M0.1 0.54 C0.19 2.95, 0.41 12.29, 0.46 14.63 M-0.51 0.34 C-0.45 2.82, 0.14 12.79, 0.27 15.24" stroke="#000000" stroke-width="1" fill="none"></path></g></g><mask></mask><g stroke-linecap="round"><g transform="translate(26.4834782034859 359.6116482998432) rotate(0 0 7.3969605000899605)"><path d="M0.46 -0.17 C0.51 2.17, 0.44 12.12, 0.41 14.58 M0.04 -0.73 C0.04 1.92, 0.19 12.54, 0.2 15.17" stroke="#000000" stroke-width="1" fill="none"></path></g></g><mask></mask><g stroke-linecap="round"><g transform="translate(33.15453123854604 359.00642193984936) rotate(0 0 7.3969605000899605)"><path d="M0.41 -0.22 C0.39 2.24, 0.43 12.03, 0.29 14.57 M-0.04 -0.8 C-0.15 1.74, -0.11 12.67, 0.01 15.15" stroke="#000000" stroke-width="1" fill="none"></path></g></g><mask></mask><g stroke-linecap="round"><g transform="translate(38.676806481367294 358.6985364809466) rotate(0 0 7.3969605000899605)"><path d="M0.29 -0.23 C0.15 2.31, -0.3 12.43, -0.42 15.01 M-0.23 -0.82 C-0.23 1.57, 0.44 11.61, 0.6 14.15" stroke="#000000" stroke-width="1" fill="none"></path></g></g><mask></mask><g stroke-linecap="round"><g transform="translate(45.362995388654326 359.7250123981387) rotate(0 0 7.3969605000899605)"><path d="M-0.42 0.21 C-0.54 2.79, -0.39 12.82, -0.41 15.24 M0.37 -0.16 C0.4 2.3, 0.59 11.93, 0.61 14.51" stroke="#000000" stroke-width="1" fill="none"></path></g></g><mask></mask><g stroke-linecap="round"><g transform="translate(52.42103701787073 359.2693084087864) rotate(0 0 7.3969605000899605)"><path d="M-0.41 0.45 C-0.43 2.87, -0.59 12.44, -0.52 14.76 M0.38 0.2 C0.56 2.7, 0.57 13.01, 0.44 15.44" stroke="#000000" stroke-width="1" fill="none"></path></g></g><mask></mask><g stroke-linecap="round"><g transform="translate(58.81535432806959 358.57372543859424) rotate(0 0 7.3969605000899605)"><path d="M-0.52 -0.04 C-0.45 2.28, -0.01 11.82, 0 14.36 M0.21 -0.53 C0.24 1.8, -0.5 12.36, -0.43 14.84" stroke="#000000" stroke-width="1" fill="none"></path></g></g><mask></mask><g stroke-linecap="round"><g transform="translate(65.2983952742793 359.5059424341903) rotate(0 0 7.3969605000899605)"><path d="M0 -0.43 C0.02 2.11, -0.46 12.73, -0.43 15.22 M-0.66 0.54 C-0.43 2.93, 0.48 12.06, 0.58 14.47" stroke="#000000" stroke-width="1" fill="none"></path></g></g><mask></mask><g stroke-linecap="round"><g transform="translate(72.0624297901627 358.78393953173213) rotate(0 0 7.3969605000899605)"><path d="M-0.43 0.42 C-0.4 2.92, 0.08 12.19, 0.18 14.52 M0.34 0.17 C0.32 2.77, -0.09 12.64, -0.16 15.08" stroke="#000000" stroke-width="1" fill="none"></path></g></g><mask></mask><g stroke-linecap="round"><g transform="translate(77.52627975337555 358.97936730990864) rotate(0 0 7.3969605000899605)"><path d="M0.18 -0.27 C0.28 2.06, 0.17 11.98, 0.18 14.43 M-0.4 0.78 C-0.31 3.14, -0.22 12.6, -0.16 14.94" stroke="#000000" stroke-width="1" fill="none"></path></g></g><mask></mask><g stroke-linecap="round"><g transform="translate(97.85928308423217 358.4466453691639) rotate(0 0 7.3969605000899605)"><path d="M0.18 -0.37 C0.18 2.08, 0.18 11.9, 0.2 14.43 M-0.39 0.64 C-0.46 3.17, -0.21 12.48, -0.12 14.94" stroke="#000000" stroke-width="1" fill="none"></path></g></g><mask></mask><g stroke-linecap="round"><g transform="translate(84.02331941194689 359.5744411726764) rotate(0 0 7.3969605000899605)"><path d="M0.2 -0.37 C0.23 2.16, 0.28 12.32, 0.33 14.77 M-0.35 0.63 C-0.39 3.28, -0.06 13.11, 0.06 15.46" stroke="#000000" stroke-width="1" fill="none"></path></g></g><mask></mask><g stroke-linecap="round"><g transform="translate(103.73231501521332 358.65657638369635) rotate(0 0 7.3969605000899605)"><path d="M0.33 -0.02 C0.37 2.43, 0.57 11.82, 0.49 14.37 M-0.17 -0.51 C-0.17 2.04, 0.37 12.35, 0.32 14.85" stroke="#000000" stroke-width="1" fill="none"></path></g></g><mask></mask><g stroke-linecap="round"><g transform="translate(90.52544621225252 358.1670996187836) rotate(0 0 7.3969605000899605)"><path d="M0.49 -0.42 C0.42 2.13, 0.05 12.69, -0.11 15.28 M0.08 0.55 C-0.1 2.96, -0.69 12.28, -0.59 14.57" stroke="#000000" stroke-width="1" fill="none"></path></g></g><mask></mask><g stroke-linecap="round"><g transform="translate(110.27080442051192 358.51549355774955) rotate(0 0 7.3969605000899605)"><path d="M-0.11 0.49 C-0.26 3.09, -0.37 12.74, -0.41 15.15 M-0.82 0.27 C-0.85 2.74, 0.34 11.8, 0.61 14.36" stroke="#000000" stroke-width="1" fill="none"></path></g></g><mask></mask><g stroke-linecap="round"><g transform="translate(127.45366018726645 361.2032139130474) rotate(0 25.761827948589087 0)"><path d="M-0.9 0.77 C7.59 0.64, 42.15 0.48, 50.76 0.33 M0.82 0.12 C9.73 0.14, 44.34 -1.79, 53.07 -1.62" stroke="#000000" stroke-width="1" fill="none"></path></g></g><mask></mask><g stroke-linecap="round"><g transform="translate(127.07508689720771 373.25226879235083) rotate(0 25.715452020688815 -2.712991782164636)"><path d="M0 0 C0.12 -1.71, -0.11 -2.5, -0.05 -5.89 M0 0 C-0.29 -1.71, -0.15 -3.73, -0.05 -5.89 M-0.05 -5.89 C14.92 -4.98, 29.64 -4.34, 51.48 -5.66 M-0.05 -5.89 C17.66 -6.01, 36.71 -5.36, 51.48 -5.66 M51.48 -5.66 C51.3 -3.42, 51.05 -1.48, 51.48 0.46 M51.48 -5.66 C51.68 -3.46, 51.66 -0.86, 51.48 0.46" stroke="#000000" stroke-width="1" fill="none"></path></g></g><mask></mask><g stroke-linecap="round" transform="translate(194.69118977577045 360.10178165930347) rotate(0 6.492629906035063 6.492629906035063)"><path d="M7.05 -0.48 C8.41 -0.5, 10.25 0.52, 11.23 1.55 C12.22 2.58, 12.91 4.23, 12.96 5.69 C13.01 7.14, 12.3 9.09, 11.54 10.31 C10.78 11.52, 9.66 12.56, 8.4 12.99 C7.13 13.41, 5.19 13.43, 3.95 12.86 C2.71 12.3, 1.52 10.95, 0.95 9.6 C0.38 8.25, 0.24 6.1, 0.54 4.75 C0.83 3.4, 1.56 2.27, 2.71 1.49 C3.86 0.71, 6.62 0.36, 7.45 0.07 C8.27 -0.22, 7.77 -0.41, 7.67 -0.26 M4.98 0.81 C6.27 0.32, 8.83 -0.13, 10.18 0.48 C11.52 1.09, 12.55 3.24, 13.05 4.48 C13.55 5.73, 13.78 6.77, 13.17 7.93 C12.57 9.1, 10.78 10.56, 9.43 11.47 C8.09 12.37, 6.37 13.53, 5.12 13.36 C3.87 13.19, 2.85 11.69, 1.95 10.44 C1.04 9.2, -0.31 7.14, -0.3 5.89 C-0.29 4.64, 1.2 3.99, 2.01 2.95 C2.82 1.9, 4.04 -0.04, 4.58 -0.39 C5.13 -0.75, 5.18 0.59, 5.29 0.82" stroke="#000000" stroke-width="1" fill="none"></path></g><g stroke-linecap="round"><g transform="translate(10 303.67513728361405) rotate(0 19.895273069207406 -19.895273069207434)"><path d="M0 0 C9.54 -9.66, 19.05 -19.73, 39.79 -39.79 M0 0 C14.13 -14.49, 28.55 -28.18, 39.79 -39.79" stroke="#000000" stroke-width="1" fill="none"></path></g></g><mask></mask><g stroke-linecap="round"><g transform="translate(217.28912654210967 303.6021525980141) rotate(0 -19.895273069207406 -19.895273069207434)"><path d="M0 0 C-12.6 -13.93, -25.29 -26.31, -39.79 -39.79 M0 0 C-11.82 -12.18, -23.87 -24.27, -39.79 -39.79" stroke="#000000" stroke-width="1" fill="none"></path></g></g><mask></mask><g stroke-linecap="round"><g transform="translate(50.17988920924881 264.2268344864847) rotate(0 63.106260940926404 0.40099261016953847)"><path d="M0 0 C35.67 0.54, 69.23 1.41, 126.21 0.8 M0 0 C29.08 0.14, 57.89 0.75, 126.21 0.8" stroke="#000000" stroke-width="1" fill="none"></path></g></g><mask></mask><g stroke-linecap="round" transform="translate(225.78595411639185 397.92391304347825) rotate(0 44.13043478260869 19.347826086956502)"><path d="M0 0 C0 0, 0 0, 0 0 M0 0 C0 0, 0 0, 0 0 M-0.26 6.4 C1.07 3.9, 2.56 3.33, 4.99 0.36 M-0.26 6.4 C1.5 4.57, 3.23 2.5, 4.99 0.36 M0.13 12.04 C3.46 9.23, 7.45 4.79, 10.63 -0.03 M0.13 12.04 C3.5 7.85, 6.67 4.86, 10.63 -0.03 M-0.13 18.44 C4.19 10.95, 12.14 4.65, 15.62 0.33 M-0.13 18.44 C3.27 13.6, 6.6 11.58, 15.62 0.33 M0.27 24.08 C5.68 18.72, 12.46 9.3, 21.26 -0.07 M0.27 24.08 C6.24 16.81, 11.79 10.76, 21.26 -0.07 M0 30.48 C10.73 18.35, 18.57 6.02, 26.25 0.29 M0 30.48 C6.57 22.53, 13.91 15.34, 26.25 0.29 M-0.26 36.88 C4.64 27.25, 14.6 22.79, 31.89 -0.1 M-0.26 36.88 C10.75 23.87, 21.03 11.55, 31.89 -0.1 M3.42 38.75 C12.43 27.22, 20.75 18.32, 36.88 0.26 M3.42 38.75 C10.81 30.2, 19.69 20.63, 36.88 0.26 M8.41 39.11 C16.58 28.7, 24.77 22.75, 42.52 -0.14 M8.41 39.11 C20.74 23.45, 35.1 8.33, 42.52 -0.14 M13.39 39.47 C25.19 23.65, 38.97 12.23, 47.51 0.22 M13.39 39.47 C24.09 27.36, 33.45 15.03, 47.51 0.22 M19.04 39.07 C30.73 27.81, 38.23 13.98, 53.15 -0.17 M19.04 39.07 C31.85 23.15, 45 8.06, 53.15 -0.17 M24.02 39.43 C33.75 28.39, 40.67 22.3, 58.14 0.19 M24.02 39.43 C38.17 23.19, 50.11 9.49, 58.14 0.19 M29.67 39.04 C41.9 23.64, 56.1 8.15, 63.78 -0.21 M29.67 39.04 C41.46 26.07, 53.52 12.99, 63.78 -0.21 M34.65 39.4 C49.05 23.48, 61.03 10.16, 68.77 0.15 M34.65 39.4 C46.34 26.08, 58.42 10.37, 68.77 0.15 M40.3 39 C45.72 28.3, 54.16 20.77, 74.41 -0.24 M40.3 39 C52.62 24.81, 63.51 12.3, 74.41 -0.24 M45.28 39.36 C55.84 26.83, 68.4 11.07, 79.4 0.12 M45.28 39.36 C54.68 30.3, 62.18 20.79, 79.4 0.12 M50.93 38.97 C61.86 23.95, 73.83 12.29, 85.04 -0.28 M50.93 38.97 C62.35 25.64, 71.95 13.36, 85.04 -0.28 M55.91 39.33 C62.46 30.98, 68.62 22.09, 88.72 1.59 M55.91 39.33 C63.45 30.3, 71.52 23.15, 88.72 1.59 M61.56 38.93 C71.78 28.75, 79.09 19.29, 88.45 7.99 M61.56 38.93 C68.38 30.08, 75.62 21.7, 88.45 7.99 M66.54 39.29 C71.28 34.18, 76.05 26.77, 88.85 13.63 M66.54 39.29 C72.14 32.21, 78.7 26.15, 88.85 13.63 M72.19 38.9 C79.49 33.25, 84.24 23.21, 88.59 20.03 M72.19 38.9 C76.63 34.56, 80.06 30.39, 88.59 20.03 M77.17 39.26 C79.52 36.05, 82.87 33.19, 88.33 26.43 M77.17 39.26 C80.22 35.31, 82.28 32.83, 88.33 26.43 M82.82 38.87 C83.98 36.88, 86.58 35.01, 88.72 32.07 M82.82 38.87 C84.89 36.72, 87.06 33.98, 88.72 32.07 M-0.29 38.44 C-0.29 38.44, -0.29 38.44, -0.29 38.44 M-0.29 38.44 C-0.29 38.44, -0.29 38.44, -0.29 38.44 M6.11 38.7 C4.13 36.27, 2.02 36.02, 0.07 33.45 M6.11 38.7 C4.7 37.63, 3.91 36.43, 0.07 33.45 M12.5 38.96 C7.47 34.83, 3.63 33.82, -0.33 27.81 M12.5 38.96 C7.76 34.58, 2.87 29.77, -0.33 27.81 M18.15 38.57 C10.69 31.54, 5.7 27.88, 0.03 22.82 M18.15 38.57 C10.93 32.91, 3.65 26.76, 0.03 22.82 M24.54 38.83 C16.48 31.72, 5.23 22.43, -0.36 17.18 M24.54 38.83 C15.28 31.78, 6.94 23.33, -0.36 17.18 M30.19 38.44 C17.9 29.51, 7.25 20.48, 0 12.19 M30.19 38.44 C19.15 29.47, 6.63 18.29, 0 12.19 M36.59 38.7 C28.4 31.49, 18.42 23.42, 0.36 7.21 M36.59 38.7 C25.76 29.33, 13.48 20.06, 0.36 7.21 M42.98 38.96 C26.71 24.8, 9.19 11.38, -0.04 1.56 M42.98 38.96 C29.4 27.78, 14.83 14.49, -0.04 1.56 M48.63 38.57 C36.25 28.7, 24.63 14.82, 3.34 -0.8 M48.63 38.57 C32.23 25.25, 18.42 12.06, 3.34 -0.8 M55.02 38.83 C42.55 30.34, 33.54 19.5, 9.74 -0.54 M55.02 38.83 C38.68 22.92, 20.78 8.45, 9.74 -0.54 M60.67 38.43 C47.21 24.83, 33.5 12.04, 16.14 -0.28 M60.67 38.43 C50.34 29.91, 41.54 21.44, 16.14 -0.28 M67.06 38.69 C51.15 24.96, 32.51 11.66, 21.78 -0.67 M67.06 38.69 C57.21 31.52, 49.64 22.34, 21.78 -0.67 M73.46 38.96 C57.91 26.77, 41.21 10.69, 28.18 -0.41 M73.46 38.96 C59.23 25.65, 43.05 13.46, 28.18 -0.41 M79.11 38.56 C64.24 25.39, 50.43 13.48, 33.82 -0.8 M79.11 38.56 C62.03 25.1, 44.94 9.69, 33.82 -0.8 M85.5 38.82 C67.06 22.07, 52.78 9.74, 40.22 -0.54 M85.5 38.82 C73.19 28.28, 63.79 19.03, 40.22 -0.54 M88.13 35.8 C73.81 21.72, 57.67 9.96, 46.62 -0.28 M88.13 35.8 C73.81 24.58, 60.98 13.73, 46.62 -0.28 M88.49 30.82 C74.77 17.98, 61.51 5.5, 52.26 -0.67 M88.49 30.82 C75.1 20.07, 62.95 7.63, 52.26 -0.67 M88.09 25.17 C83.33 19.95, 77.04 15.41, 58.66 -0.41 M88.09 25.17 C81.66 19.68, 74.75 15.02, 58.66 -0.41 M88.45 20.19 C81.43 13.09, 73.28 7.29, 64.3 -0.81 M88.45 20.19 C83.96 14.96, 77.32 10.16, 64.3 -0.81 M88.06 14.54 C82.22 10.36, 75.99 7.22, 70.7 -0.55 M88.06 14.54 C84.3 10.15, 78.97 6.67, 70.7 -0.55 M88.42 9.56 C87.3 9.02, 83.34 5.09, 77.1 -0.28 M88.42 9.56 C83.52 6.11, 80.19 2.73, 77.1 -0.28 M88.02 3.91 C86.99 3.48, 86.28 2.1, 82.74 -0.68 M88.02 3.91 C87.29 2.78, 85.85 2.11, 82.74 -0.68" stroke="#868e96" stroke-width="0.5" fill="none"></path><path d="M0 0 C30.55 -2.58, 62.55 0.39, 88.26 0 M0 0 C32.65 1.01, 66.42 0.09, 88.26 0 M88.26 0 C88.52 6.24, 89.44 15.26, 88.26 38.7 M88.26 0 C88.03 14.45, 87.76 30.83, 88.26 38.7 M88.26 38.7 C66.48 37.16, 48.95 39.51, 0 38.7 M88.26 38.7 C66.98 39.24, 44.44 39.54, 0 38.7 M0 38.7 C2.06 25.54, -0.24 14.47, 0 0 M0 38.7 C0.48 30.42, -0.04 23.82, 0 0" stroke="#000000" stroke-width="1" fill="none"></path></g><g stroke-linecap="round" transform="translate(232.3076932468266 387.92391304347825) rotate(0 3.478260869565247 5.4347826086956275)"><path d="M0 0 C0 0, 0 0, 0 0 M0 0 C0 0, 0 0, 0 0 M-0.26 6.4 C0.88 4.52, 2.98 3.14, 4.99 0.36 M-0.26 6.4 C1.1 4.93, 2.34 3.43, 4.99 0.36 M0.79 11.29 C2.58 9.83, 3.87 7.71, 7.35 3.74 M0.79 11.29 C2.07 9.63, 3.73 8.16, 7.35 3.74 M5.78 11.65 C6.18 11.15, 6.68 10.47, 7.74 9.38 M5.78 11.65 C6.21 11.06, 6.85 10.47, 7.74 9.38 M-0.1 10.78 C-0.1 10.78, -0.1 10.78, -0.1 10.78 M-0.1 10.78 C-0.1 10.78, -0.1 10.78, -0.1 10.78 M6.3 11.05 C3.9 8.89, 1.46 6.93, 0.26 5.8 M6.3 11.05 C4.6 9.81, 3.02 8.05, 0.26 5.8 M7.41 6.71 C4.16 4.51, 2.19 1.92, -0.13 0.15 M7.41 6.71 C4.6 4.3, 1.96 1.94, -0.13 0.15 M7.02 1.07 C6.31 0.52, 5.78 -0.11, 4.75 -0.9 M7.02 1.07 C6.58 0.73, 6.06 0.21, 4.75 -0.9" stroke="#868e96" stroke-width="0.5" fill="none"></path><path d="M0 0 C2.74 0.24, 5.74 -0.16, 6.96 0 M0 0 C1.41 -0.12, 2.86 -0.02, 6.96 0 M6.96 0 C7.29 3.74, 7.48 7.33, 6.96 10.87 M6.96 0 C6.89 3.16, 6.77 6.2, 6.96 10.87 M6.96 10.87 C5.81 11.14, 3.9 11, 0 10.87 M6.96 10.87 C4.56 10.92, 1.94 10.7, 0 10.87 M0 10.87 C-0.21 8.54, -0.57 6.79, 0 0 M0 10.87 C0.02 7.84, -0.24 4.11, 0 0" stroke="#000000" stroke-width="1" fill="none"></path></g><g stroke-linecap="round" transform="translate(250.56856281204398 387.27173913043475) rotate(0 3.478260869565247 5.4347826086956275)"><path d="M0 0 C0 0, 0 0, 0 0 M0 0 C0 0, 0 0, 0 0 M-0.26 6.4 C1.47 4.93, 2.32 3.54, 4.99 0.36 M-0.26 6.4 C1.36 4.56, 2.76 2.58, 4.99 0.36 M0.79 11.29 C2.73 8.94, 4.46 6.92, 7.35 3.74 M0.79 11.29 C2.91 9.16, 4.67 6.76, 7.35 3.74 M5.78 11.65 C6.19 11.03, 6.56 10.69, 7.74 9.38 M5.78 11.65 C6.44 10.96, 6.97 10.25, 7.74 9.38 M-0.1 10.78 C-0.1 10.78, -0.1 10.78, -0.1 10.78 M-0.1 10.78 C-0.1 10.78, -0.1 10.78, -0.1 10.78 M6.3 11.05 C3.85 8.97, 1.94 7.71, 0.26 5.8 M6.3 11.05 C4.49 9.33, 2.83 7.92, 0.26 5.8 M7.41 6.71 C6.33 5.55, 4.54 3.9, -0.13 0.15 M7.41 6.71 C4.88 4.44, 2.38 2.56, -0.13 0.15 M7.02 1.07 C6.32 0.35, 5.48 -0.08, 4.75 -0.9 M7.02 1.07 C6.42 0.54, 5.96 0.1, 4.75 -0.9" stroke="#868e96" stroke-width="0.5" fill="none"></path><path d="M0 0 C1.75 -0.21, 2.66 -0.32, 6.96 0 M0 0 C2.11 0.02, 4.66 0.05, 6.96 0 M6.96 0 C7.5 2.08, 6.9 4.83, 6.96 10.87 M6.96 0 C6.76 2.39, 6.69 4.56, 6.96 10.87 M6.96 10.87 C4.95 11.04, 3.5 11.23, 0 10.87 M6.96 10.87 C4.88 10.71, 2.61 11.03, 0 10.87 M0 10.87 C-0.51 8.63, 0.02 6.11, 0 0 M0 10.87 C-0.21 7.81, -0.26 5.26, 0 0" stroke="#000000" stroke-width="1" fill="none"></path></g><g stroke-linecap="round" transform="translate(268.39464976856584 386.4021739130435) rotate(0 3.478260869565247 5.4347826086956275)"><path d="M0 0 C0 0, 0 0, 0 0 M0 0 C0 0, 0 0, 0 0 M-0.26 6.4 C0.8 5.2, 2.34 3.57, 4.99 0.36 M-0.26 6.4 C1.2 4.39, 2.94 2.81, 4.99 0.36 M0.79 11.29 C2.81 8.86, 5.68 5.45, 7.35 3.74 M0.79 11.29 C2.59 9.1, 4.52 6.64, 7.35 3.74 M5.78 11.65 C6.33 10.95, 7.01 10.08, 7.74 9.38 M5.78 11.65 C6.36 10.93, 6.92 10.35, 7.74 9.38 M-0.1 10.78 C-0.1 10.78, -0.1 10.78, -0.1 10.78 M-0.1 10.78 C-0.1 10.78, -0.1 10.78, -0.1 10.78 M6.3 11.05 C4.7 10.1, 3.33 8.32, 0.26 5.8 M6.3 11.05 C4.11 8.99, 1.44 6.79, 0.26 5.8 M7.41 6.71 C4.94 4.29, 2.08 1.74, -0.13 0.15 M7.41 6.71 C5.34 5.14, 3.43 3.06, -0.13 0.15 M7.02 1.07 C6.22 0.56, 5.64 -0.02, 4.75 -0.9 M7.02 1.07 C6.23 0.31, 5.35 -0.49, 4.75 -0.9" stroke="#868e96" stroke-width="0.5" fill="none"></path><path d="M0 0 C2.22 -0.28, 5.11 -0.18, 6.96 0 M0 0 C1.74 0.02, 3.15 0.1, 6.96 0 M6.96 0 C6.92 3.08, 6.56 6.01, 6.96 10.87 M6.96 0 C6.67 3.39, 6.82 7.36, 6.96 10.87 M6.96 10.87 C4.51 11.21, 1.65 11.11, 0 10.87 M6.96 10.87 C4.49 10.98, 2.25 10.78, 0 10.87 M0 10.87 C0.05 8.24, -0.17 4.93, 0 0 M0 10.87 C-0.21 6.69, 0.16 2.49, 0 0" stroke="#000000" stroke-width="1" fill="none"></path></g><g stroke-linecap="round" transform="translate(287.9598671598701 386.4021739130435) rotate(0 3.478260869565247 5.4347826086956275)"><path d="M0 0 C0 0, 0 0, 0 0 M0 0 C0 0, 0 0, 0 0 M-0.26 6.4 C1.48 4.59, 3.22 2.52, 4.99 0.36 M-0.26 6.4 C1.31 4.73, 2.96 2.86, 4.99 0.36 M0.79 11.29 C2.87 8.69, 4.85 6.82, 7.35 3.74 M0.79 11.29 C3.07 8.35, 5.79 5.57, 7.35 3.74 M5.78 11.65 C6.2 11.02, 6.61 10.81, 7.74 9.38 M5.78 11.65 C6.31 11.06, 6.9 10.33, 7.74 9.38 M-0.1 10.78 C-0.1 10.78, -0.1 10.78, -0.1 10.78 M-0.1 10.78 C-0.1 10.78, -0.1 10.78, -0.1 10.78 M6.3 11.05 C4.82 9.68, 3.68 8.48, 0.26 5.8 M6.3 11.05 C4.79 9.75, 3.79 8.97, 0.26 5.8 M7.41 6.71 C4.98 4.24, 2.1 2.13, -0.13 0.15 M7.41 6.71 C5.47 4.87, 3.45 3.3, -0.13 0.15 M7.02 1.07 C6.44 0.67, 6.12 0.1, 4.75 -0.9 M7.02 1.07 C6.55 0.57, 6.08 0.24, 4.75 -0.9" stroke="#868e96" stroke-width="0.5" fill="none"></path><path d="M0 0 C1.8 -0.17, 3.19 -0.31, 6.96 0 M0 0 C1.93 0.1, 4.1 0.16, 6.96 0 M6.96 0 C6.5 2.45, 7.1 4.82, 6.96 10.87 M6.96 0 C6.81 3.59, 7.13 6.58, 6.96 10.87 M6.96 10.87 C4.6 11.13, 2.33 10.93, 0 10.87 M6.96 10.87 C5.44 10.85, 4.1 10.73, 0 10.87 M0 10.87 C-0.22 7.04, 0.48 2.6, 0 0 M0 10.87 C0.17 8.59, 0.27 6.34, 0 0" stroke="#000000" stroke-width="1" fill="none"></path></g><g stroke-linecap="round" transform="translate(301.87291063813086 385.53260869565213) rotate(0 3.478260869565247 5.4347826086956275)"><path d="M0 0 C0 0, 0 0, 0 0 M0 0 C0 0, 0 0, 0 0 M-0.26 6.4 C1.75 4.2, 3.69 1.55, 4.99 0.36 M-0.26 6.4 C0.99 5.06, 1.99 3.65, 4.99 0.36 M0.79 11.29 C3.23 8.68, 6.05 5.36, 7.35 3.74 M0.79 11.29 C3.12 8.69, 5.12 5.99, 7.35 3.74 M5.78 11.65 C6.38 11.09, 6.95 10.28, 7.74 9.38 M5.78 11.65 C6.27 11.04, 6.72 10.51, 7.74 9.38 M-0.1 10.78 C-0.1 10.78, -0.1 10.78, -0.1 10.78 M-0.1 10.78 C-0.1 10.78, -0.1 10.78, -0.1 10.78 M6.3 11.05 C4.28 8.97, 1.22 7.22, 0.26 5.8 M6.3 11.05 C4.6 9.61, 2.72 7.94, 0.26 5.8 M7.41 6.71 C5.07 4.69, 2.89 2.8, -0.13 0.15 M7.41 6.71 C4.56 4.24, 1.6 1.55, -0.13 0.15 M7.02 1.07 C6.37 0.31, 5.35 -0.16, 4.75 -0.9 M7.02 1.07 C6.43 0.53, 5.78 0, 4.75 -0.9" stroke="#868e96" stroke-width="0.5" fill="none"></path><path d="M0 0 C1.28 -0.32, 2.98 0.2, 6.96 0 M0 0 C2.15 0.14, 4.25 -0.05, 6.96 0 M6.96 0 C7.06 2.91, 6.96 6.04, 6.96 10.87 M6.96 0 C7.16 2.45, 7.04 5.32, 6.96 10.87 M6.96 10.87 C4.31 10.92, 1.12 10.56, 0 10.87 M6.96 10.87 C4.25 10.69, 1.72 10.86, 0 10.87 M0 10.87 C0.5 6.43, -0.44 2.27, 0 0 M0 10.87 C0.19 7.59, 0.21 3.82, 0 0" stroke="#000000" stroke-width="1" fill="none"></path></g><g stroke-linecap="round" transform="translate(231.43812802943535 437.5978260869565) rotate(0 3.478260869565247 5.4347826086956275)"><path d="M0 0 C0 0, 0 0, 0 0 M0 0 C0 0, 0 0, 0 0 M-0.26 6.4 C1.54 4.04, 3.06 2.22, 4.99 0.36 M-0.26 6.4 C1.51 4.19, 3.42 2.32, 4.99 0.36 M0.79 11.29 C2.8 9.06, 4.27 7.09, 7.35 3.74 M0.79 11.29 C2.34 9.14, 4.35 7.2, 7.35 3.74 M5.78 11.65 C6.14 11.19, 6.48 10.69, 7.74 9.38 M5.78 11.65 C6.48 10.8, 7.2 10, 7.74 9.38 M-0.1 10.78 C-0.1 10.78, -0.1 10.78, -0.1 10.78 M-0.1 10.78 C-0.1 10.78, -0.1 10.78, -0.1 10.78 M6.3 11.05 C4.29 9.92, 2.99 7.81, 0.26 5.8 M6.3 11.05 C5.03 10.03, 3.6 8.83, 0.26 5.8 M7.41 6.71 C5.34 4.91, 4 3.45, -0.13 0.15 M7.41 6.71 C5.43 4.9, 3.92 3.44, -0.13 0.15 M7.02 1.07 C6.15 0.53, 5.5 -0.16, 4.75 -0.9 M7.02 1.07 C6.61 0.74, 6.02 0.21, 4.75 -0.9" stroke="#868e96" stroke-width="0.5" fill="none"></path><path d="M0 0 C1.68 0.22, 3.42 -0.24, 6.96 0 M0 0 C2.4 -0.06, 5.01 -0.18, 6.96 0 M6.96 0 C7.02 2.47, 6.63 5.75, 6.96 10.87 M6.96 0 C7.11 4.38, 7.26 8.42, 6.96 10.87 M6.96 10.87 C4.08 10.54, 2.17 10.65, 0 10.87 M6.96 10.87 C5.19 10.84, 3.34 10.77, 0 10.87 M0 10.87 C-0.51 6.89, 0.03 4.15, 0 0 M0 10.87 C0.19 7.17, -0.17 3.79, 0 0" stroke="#000000" stroke-width="1" fill="none"></path></g><g stroke-linecap="round" transform="translate(249.6989975946526 436.945652173913) rotate(0 3.478260869565247 5.4347826086956275)"><path d="M0 0 C0 0, 0 0, 0 0 M0 0 C0 0, 0 0, 0 0 M-0.26 6.4 C1.12 4.48, 3.34 2.73, 4.99 0.36 M-0.26 6.4 C1.36 4.73, 2.6 3.01, 4.99 0.36 M0.79 11.29 C3.19 8.34, 5.03 6.3, 7.35 3.74 M0.79 11.29 C2.78 9.06, 4.47 6.82, 7.35 3.74 M5.78 11.65 C6.45 10.74, 7.38 9.94, 7.74 9.38 M5.78 11.65 C6.23 11.12, 6.66 10.57, 7.74 9.38 M-0.1 10.78 C-0.1 10.78, -0.1 10.78, -0.1 10.78 M-0.1 10.78 C-0.1 10.78, -0.1 10.78, -0.1 10.78 M6.3 11.05 C4.54 9.15, 2.4 8.18, 0.26 5.8 M6.3 11.05 C3.87 9.04, 1.4 6.83, 0.26 5.8 M7.41 6.71 C5.72 4.94, 2.97 3.03, -0.13 0.15 M7.41 6.71 C5.3 4.59, 3.03 2.98, -0.13 0.15 M7.02 1.07 C6.46 0.68, 5.79 0.26, 4.75 -0.9 M7.02 1.07 C6.19 0.37, 5.43 -0.22, 4.75 -0.9" stroke="#868e96" stroke-width="0.5" fill="none"></path><path d="M0 0 C1.45 -0.29, 3.01 -0.08, 6.96 0 M0 0 C2.75 -0.14, 5.45 0.05, 6.96 0 M6.96 0 C6.62 2.33, 7.44 5.5, 6.96 10.87 M6.96 0 C7.24 2.74, 7.15 5.56, 6.96 10.87 M6.96 10.87 C5.11 10.62, 2.57 10.76, 0 10.87 M6.96 10.87 C5.67 10.8, 4.16 11.02, 0 10.87 M0 10.87 C0.12 8.64, 0.16 6.36, 0 0 M0 10.87 C-0.17 6.95, 0.15 3.36, 0 0" stroke="#000000" stroke-width="1" fill="none"></path></g><g stroke-linecap="round" transform="translate(267.5250845511746 436.07608695652175) rotate(0 3.478260869565247 5.4347826086956275)"><path d="M0 0 C0 0, 0 0, 0 0 M0 0 C0 0, 0 0, 0 0 M-0.26 6.4 C1.17 5.23, 2.2 3.54, 4.99 0.36 M-0.26 6.4 C0.76 5.07, 2.09 3.9, 4.99 0.36 M0.79 11.29 C2.15 9.63, 3.81 7.36, 7.35 3.74 M0.79 11.29 C2.23 9.34, 4.37 7.35, 7.35 3.74 M5.78 11.65 C6.49 10.98, 6.89 10.22, 7.74 9.38 M5.78 11.65 C6.25 11.03, 6.82 10.51, 7.74 9.38 M-0.1 10.78 C-0.1 10.78, -0.1 10.78, -0.1 10.78 M-0.1 10.78 C-0.1 10.78, -0.1 10.78, -0.1 10.78 M6.3 11.05 C3.7 9.28, 2.12 7.21, 0.26 5.8 M6.3 11.05 C4.05 9.11, 1.94 7.22, 0.26 5.8 M7.41 6.71 C5.04 4.87, 3.28 2.79, -0.13 0.15 M7.41 6.71 C5.95 5.57, 4.22 3.85, -0.13 0.15 M7.02 1.07 C6.03 0.47, 5.38 -0.27, 4.75 -0.9 M7.02 1.07 C6.1 0.33, 5.23 -0.42, 4.75 -0.9" stroke="#868e96" stroke-width="0.5" fill="none"></path><path d="M0 0 C2.66 -0.03, 5.24 -0.19, 6.96 0 M0 0 C1.93 0.08, 3.84 0.04, 6.96 0 M6.96 0 C7.4 2.7, 6.66 4.73, 6.96 10.87 M6.96 0 C7.18 4.01, 7.03 7.59, 6.96 10.87 M6.96 10.87 C5.43 10.77, 3.79 11.06, 0 10.87 M6.96 10.87 C4.9 11.01, 2.65 10.71, 0 10.87 M0 10.87 C0.11 9.05, 0.27 6.83, 0 0 M0 10.87 C0.22 8.6, 0.04 6.06, 0 0" stroke="#000000" stroke-width="1" fill="none"></path></g><g stroke-linecap="round" transform="translate(287.09030194247885 436.07608695652175) rotate(0 3.478260869565247 5.4347826086956275)"><path d="M0 0 C0 0, 0 0, 0 0 M0 0 C0 0, 0 0, 0 0 M-0.26 6.4 C1.29 4.52, 2.67 2.9, 4.99 0.36 M-0.26 6.4 C1.44 4.7, 2.84 2.78, 4.99 0.36 M0.79 11.29 C2.18 9.23, 3.39 8.09, 7.35 3.74 M0.79 11.29 C3 8.98, 4.77 6.63, 7.35 3.74 M5.78 11.65 C6.22 10.99, 6.8 10.37, 7.74 9.38 M5.78 11.65 C6.39 11.01, 7.04 10.26, 7.74 9.38 M-0.1 10.78 C-0.1 10.78, -0.1 10.78, -0.1 10.78 M-0.1 10.78 C-0.1 10.78, -0.1 10.78, -0.1 10.78 M6.3 11.05 C5.43 10.11, 4 8.79, 0.26 5.8 M6.3 11.05 C4.27 9.23, 2.27 7.72, 0.26 5.8 M7.41 6.71 C5.09 4.32, 2.29 2.88, -0.13 0.15 M7.41 6.71 C5.41 4.93, 3.89 3.49, -0.13 0.15 M7.02 1.07 C6.29 0.53, 5.58 -0.39, 4.75 -0.9 M7.02 1.07 C6.46 0.66, 5.99 0.08, 4.75 -0.9" stroke="#868e96" stroke-width="0.5" fill="none"></path><path d="M0 0 C1.87 -0.21, 3.03 0.01, 6.96 0 M0 0 C1.4 0.01, 2.87 -0.12, 6.96 0 M6.96 0 C6.74 3.08, 7.34 6.25, 6.96 10.87 M6.96 0 C7.01 3, 6.73 6.76, 6.96 10.87 M6.96 10.87 C4.97 11.08, 3.66 11.11, 0 10.87 M6.96 10.87 C5.02 10.75, 3.18 10.93, 0 10.87 M0 10.87 C0.27 7.59, -0.44 3.11, 0 0 M0 10.87 C-0.03 8.01, -0.09 5.21, 0 0" stroke="#000000" stroke-width="1" fill="none"></path></g><g stroke-linecap="round" transform="translate(301.0033454207396 435.20652173913027) rotate(0 3.478260869565247 5.4347826086956275)"><path d="M0 0 C0 0, 0 0, 0 0 M0 0 C0 0, 0 0, 0 0 M-0.26 6.4 C1.36 4.45, 3.65 1.73, 4.99 0.36 M-0.26 6.4 C1.18 4.65, 2.72 2.68, 4.99 0.36 M0.79 11.29 C2.64 8.98, 4.91 6.08, 7.35 3.74 M0.79 11.29 C2.73 8.9, 4.61 6.95, 7.35 3.74 M5.78 11.65 C6.36 10.9, 7.05 10.11, 7.74 9.38 M5.78 11.65 C6.38 11.01, 6.91 10.35, 7.74 9.38 M-0.1 10.78 C-0.1 10.78, -0.1 10.78, -0.1 10.78 M-0.1 10.78 C-0.1 10.78, -0.1 10.78, -0.1 10.78 M6.3 11.05 C4.32 9.11, 2.03 7.07, 0.26 5.8 M6.3 11.05 C4.64 9.78, 3.11 8.12, 0.26 5.8 M7.41 6.71 C4.76 5.02, 2.82 3.07, -0.13 0.15 M7.41 6.71 C4.78 4.18, 1.86 1.5, -0.13 0.15 M7.02 1.07 C6.28 0.23, 5.17 -0.52, 4.75 -0.9 M7.02 1.07 C6.29 0.35, 5.46 -0.32, 4.75 -0.9" stroke="#868e96" stroke-width="0.5" fill="none"></path><path d="M0 0 C1.91 0.02, 3.65 -0.07, 6.96 0 M0 0 C2.12 -0.11, 4.49 0.15, 6.96 0 M6.96 0 C7.26 4.67, 6.93 8.65, 6.96 10.87 M6.96 0 C6.7 3.82, 6.79 7.09, 6.96 10.87 M6.96 10.87 C5.02 11.14, 2.94 10.96, 0 10.87 M6.96 10.87 C4.1 10.86, 1.64 10.88, 0 10.87 M0 10.87 C-0.45 6.49, -0.22 2.99, 0 0 M0 10.87 C-0.06 7.15, -0.1 3.04, 0 0" stroke="#000000" stroke-width="1" fill="none"></path></g><g stroke-linecap="round"><g transform="translate(113.9163888990006 386) rotate(0 54.914977941539064 22)"><path d="M-0.04 -0.33 C0.12 7.04, -17.77 37.23, 0.52 44.62 C18.8 52, 91.42 44.45, 109.67 43.99 M-1.52 -1.55 C-1.43 5.44, -18.55 35.53, -0.16 42.82 C18.23 50.1, 90.4 42.23, 108.82 42.15" stroke="#1e1e1e" stroke-width="2" fill="none"></path></g><g transform="translate(113.9163888990006 386) rotate(0 54.914977941539064 22)"><path d="M2.71 21.5 C1.37 16.61, 2.22 9.72, -0.04 -0.33 M2.71 21.5 C0.63 13.27, 1.4 4.49, -0.04 -0.33" stroke="#1e1e1e" stroke-width="2" fill="none"></path></g><g transform="translate(113.9163888990006 386) rotate(0 54.914977941539064 22)"><path d="M-11.96 18.16 C-9.43 14.15, -4.71 8.15, -0.04 -0.33 M-11.96 18.16 C-8.45 11.35, -2.1 3.84, -0.04 -0.33" stroke="#1e1e1e" stroke-width="2" fill="none"></path></g><g transform="translate(113.9163888990006 386) rotate(0 54.914977941539064 22)"><path d="M85.84 51.98 C91.32 50.27, 98.95 46.54, 108.82 42.15 M85.84 51.98 C93.57 48.57, 104.14 44.36, 108.82 42.15" stroke="#1e1e1e" stroke-width="2" fill="none"></path></g><g transform="translate(113.9163888990006 386) rotate(0 54.914977941539064 22)"><path d="M84.89 34.91 C90.68 37.69, 98.56 38.47, 108.82 42.15 M84.89 34.91 C93.02 38.01, 103.94 40.3, 108.82 42.15" stroke="#1e1e1e" stroke-width="2" fill="none"></path></g></g><mask></mask><g mask="url(#mask-cIM_eUUc5NwU5bCQR04lz)" stroke-linecap="round"><g transform="translate(336.9163888990006 180) rotate(0 -57 65)"><path d="M-0.02 0.12 C0.04 21.74, 19.4 108.15, 0.49 129.99 C-18.43 151.84, -94.33 131.01, -113.49 131.18 M-1.49 -0.87 C-1.56 20.94, 18.54 109.81, -0.21 131.53 C-18.96 153.25, -94.94 129.89, -113.99 129.46" stroke="#1e1e1e" stroke-width="2" fill="none"></path></g><g transform="translate(336.9163888990006 180) rotate(0 -57 65)"><path d="M10.62 22.74 C7.46 16.5, 3.94 9.5, -0.02 0.12 M10.62 22.74 C6.61 14.58, 1.37 5.11, -0.02 0.12" stroke="#1e1e1e" stroke-width="2" fill="none"></path></g><g transform="translate(336.9163888990006 180) rotate(0 -57 65)"><path d="M-6.41 24.28 C-4.27 17.57, -2.49 10.09, -0.02 0.12 M-6.41 24.28 C-3.63 15.37, -2.08 5.29, -0.02 0.12" stroke="#1e1e1e" stroke-width="2" fill="none"></path></g><g transform="translate(336.9163888990006 180) rotate(0 -57 65)"><path d="M-89.43 124.75 C-96.88 127.02, -104.72 128.53, -113.99 129.46 M-89.43 124.75 C-99.1 127.59, -109.88 129.02, -113.99 129.46" stroke="#1e1e1e" stroke-width="2" fill="none"></path></g><g transform="translate(336.9163888990006 180) rotate(0 -57 65)"><path d="M-92.15 141.63 C-98.78 138.65, -105.78 134.9, -113.99 129.46 M-92.15 141.63 C-100.67 137.73, -110.36 132.43, -113.99 129.46" stroke="#1e1e1e" stroke-width="2" fill="none"></path></g></g><mask id="mask-cIM_eUUc5NwU5bCQR04lz"><rect x="0" y="0" fill="#fff" width="550.9163888990006" height="410"></rect><rect x="277.049724012526" y="297.5" fill="#000" width="119.73332977294922" height="25" opacity="1"></rect></mask><g transform="translate(277.049724012526 297.5) rotate(0 7.261539554600404 -47.55571501940875)"><text x="59.86666488647461" y="17.52" font-family="Virgil, Segoe UI Emoji" font-size="20px" fill="#1e1e1e" text-anchor="middle" style="white-space: pre;" direction="ltr" dominant-baseline="alphabetic">RedFish API</text></g></svg>